<?xml version="1.0" standalone="no"?>
<!DOCTYPE svg PUBLIC "-//W3C//DTD SVG 20010904//EN"
 "http://www.w3.org/TR/2001/REC-SVG-20010904/DTD/svg10.dtd">
<svg version="1.0" xmlns="http://www.w3.org/2000/svg"
 width="140.000000pt" height="40.000000pt" viewBox="0 0 140.000000 40.000000"
 preserveAspectRatio="xMidYMid meet">

<g transform="translate(0.000000,40.000000) scale(0.100000,-0.100000)"
fill="#000000" stroke="none">
<path d="M182 339 c-64 -32 -141 -155 -142 -226 0 -41 33 -73 74 -72 28 0 29
1 10 9 -30 12 -34 21 -25 61 10 43 111 201 142 223 34 23 52 4 43 -47 -8 -49
9 -43 26 9 9 27 9 38 0 49 -18 21 -78 18 -128 -6z"/>
<path d="M494 255 c-3 -14 -4 -31 -1 -38 10 -27 -58 -137 -85 -137 -6 0 -8 21
-6 52 1 28 -1 52 -7 54 -5 2 -22 -17 -37 -41 -15 -25 -34 -45 -43 -45 -22 0
-19 7 20 52 19 23 32 45 29 49 -17 28 -104 -24 -104 -63 0 -21 -30 -50 -84
-81 -27 -15 -28 -17 -6 -11 14 3 40 17 58 31 26 20 36 22 47 13 8 -7 25 -10
38 -6 16 4 26 0 35 -14 27 -44 93 -6 138 81 21 41 25 34 11 -18 -21 -81 33
-124 90 -71 29 27 83 30 101 6 19 -26 55 -22 85 10 38 39 34 52 -4 16 l-32
-29 6 63 c8 73 -2 79 -38 22 -24 -38 -50 -59 -61 -48 -2 3 11 25 31 49 37 47
34 64 -9 53 -37 -9 -69 -52 -63 -87 3 -20 -2 -31 -16 -38 -32 -18 -42 3 -23
51 21 53 20 77 -4 90 -12 6 -20 21 -20 35 0 35 -37 35 -46 0z"/>
</g>
</svg>
